<?xml version="1.0" encoding="UTF-8"?>
<svg id="Capa_2" data-name="Capa 2" xmlns="http://www.w3.org/2000/svg" xmlns:xlink="http://www.w3.org/1999/xlink" viewBox="0 0 324.09 74.78">
  <defs>
    <linearGradient id="Degradado_sin_nombre_692" data-name="Degradado sin nombre 692" x1="5.38" y1="50.57" x2="31.48" y2="30.47" gradientUnits="userSpaceOnUse">
      <stop offset=".03" stop-color="#7bc7c6"/>
      <stop offset=".33" stop-color="#56c0d9"/>
      <stop offset=".76" stop-color="#0087b0"/>
    </linearGradient>
    <radialGradient id="Degradado_sin_nombre_710" data-name="Degradado sin nombre 710" cx="6.96" cy="-2.22" fx="6.96" fy="-2.22" r="72.6" gradientUnits="userSpaceOnUse">
      <stop offset=".57" stop-color="#fff"/>
      <stop offset=".71" stop-color="#96d1ce"/>
      <stop offset=".79" stop-color="#5eb9c0"/>
      <stop offset=".95" stop-color="#0085b2"/>
    </radialGradient>
  </defs>
  <g id="Capa_1-2" data-name="Capa 1">
    <g>
      <path d="m97.73,50.45c-.35,0-.64-.12-.86-.36-.22-.24-.34-.52-.34-.84v-31.2c0-.35.11-.64.34-.86.22-.22.51-.34.86-.34h12.48c3.14,0,5.81.5,8.02,1.51,2.21,1.01,3.9,2.48,5.09,4.42,1.18,1.94,1.82,4.33,1.92,7.18.03,1.41.05,2.64.05,3.7s-.02,2.27-.05,3.65c-.13,2.98-.76,5.44-1.9,7.39-1.14,1.95-2.78,3.4-4.94,4.34-2.16.94-4.81,1.42-7.94,1.42h-12.72Zm7.44-6.91h5.04c1.38,0,2.52-.22,3.43-.65.91-.43,1.6-1.11,2.06-2.04.46-.93.71-2.14.74-3.65.06-.93.1-1.76.12-2.5.02-.74.02-1.47,0-2.21-.02-.74-.06-1.55-.12-2.45-.06-2.18-.63-3.77-1.7-4.78-1.07-1.01-2.66-1.51-4.78-1.51h-4.8v19.78Z" fill="#fff"/>
      <path d="m141.88,50.93c-3.78,0-6.78-1.02-9.02-3.07-2.24-2.05-3.41-5.09-3.5-9.12v-1.68c.1-2.53.66-4.7,1.7-6.5,1.04-1.81,2.48-3.18,4.32-4.13,1.84-.94,3.99-1.42,6.46-1.42,2.82,0,5.14.56,6.98,1.68,1.84,1.12,3.22,2.64,4.15,4.56.93,1.92,1.39,4.11,1.39,6.58v1.15c0,.35-.11.64-.34.86-.22.22-.51.34-.86.34h-15.36v.34c.03.93.2,1.78.5,2.54s.75,1.38,1.34,1.82c.59.45,1.32.67,2.18.67.64,0,1.18-.1,1.61-.31.43-.21.79-.45,1.08-.72.29-.27.51-.5.67-.7.29-.35.52-.57.7-.65.18-.08.46-.12.84-.12h5.95c.32,0,.58.1.79.29s.3.45.26.77c-.03.54-.3,1.2-.82,1.97s-1.26,1.53-2.23,2.28c-.98.75-2.2,1.37-3.67,1.85-1.47.48-3.18.72-5.14.72Zm-4.08-15.5h8.11v-.1c0-1.06-.15-1.96-.46-2.71-.3-.75-.77-1.34-1.39-1.75-.62-.42-1.37-.62-2.23-.62s-1.55.21-2.16.62c-.61.42-1.07,1-1.39,1.75-.32.75-.48,1.66-.48,2.71v.1Z" fill="#fff"/>
      <path d="m166.8,50.45c-.48,0-.83-.12-1.06-.36-.22-.24-.42-.52-.58-.84l-9.07-22.27c-.06-.13-.1-.27-.1-.43,0-.29.1-.54.31-.74.21-.21.47-.31.79-.31h5.42c.42,0,.74.11.96.34.22.22.37.45.43.67l5.42,14.74,5.47-14.74c.06-.22.21-.45.43-.67.22-.22.54-.34.96-.34h5.42c.29,0,.54.1.77.31.22.21.34.46.34.74,0,.16-.03.3-.1.43l-9.07,22.27c-.13.32-.31.6-.55.84-.24.24-.62.36-1.13.36h-5.09Z" fill="#fff"/>
      <path d="m192.38,50.45c-.54,0-.98-.16-1.3-.48-.32-.32-.51-.69-.58-1.1l-5.23-30.67c-.03-.1-.05-.17-.05-.22v-.12c0-.26.1-.49.31-.7.21-.21.44-.31.7-.31h5.95c.9,0,1.39.35,1.49,1.06l3.12,18.72,3.46-11.04c.1-.26.26-.54.48-.84.22-.3.59-.46,1.1-.46h3.46c.54,0,.93.15,1.15.46.22.3.37.58.43.84l3.46,11.04,3.12-18.72c.1-.7.59-1.06,1.49-1.06h5.95c.29,0,.54.1.74.31.21.21.31.44.31.7,0,.03,0,.07-.02.12-.02.05-.03.12-.03.22l-5.23,30.67c-.06.42-.26.78-.58,1.1-.32.32-.75.48-1.3.48h-4.56c-.54,0-.96-.14-1.25-.43-.29-.29-.48-.56-.58-.82l-4.85-13.73-4.85,13.73c-.1.26-.28.53-.55.82-.27.29-.68.43-1.22.43h-4.56Z" fill="#fff"/>
      <path d="m232.89,50.93c-1.73,0-3.27-.33-4.63-.98-1.36-.66-2.44-1.54-3.24-2.66-.8-1.12-1.2-2.38-1.2-3.79,0-2.27.93-4.07,2.78-5.4,1.86-1.33,4.32-2.23,7.39-2.71l6-.91v-.67c0-1.15-.24-2.03-.72-2.64-.48-.61-1.36-.91-2.64-.91-.9,0-1.62.18-2.18.53-.56.35-1,.83-1.32,1.44-.29.42-.69.62-1.2.62h-5.38c-.35,0-.62-.1-.82-.31-.19-.21-.27-.46-.24-.74,0-.58.22-1.24.65-1.99.43-.75,1.1-1.5,1.99-2.23.9-.74,2.05-1.34,3.46-1.82,1.41-.48,3.12-.72,5.14-.72s3.81.24,5.28.72c1.47.48,2.67,1.15,3.6,2.02.93.86,1.61,1.88,2.04,3.05.43,1.17.65,2.46.65,3.86v14.59c0,.32-.12.6-.36.84-.24.24-.52.36-.84.36h-5.57c-.35,0-.64-.12-.86-.36-.22-.24-.34-.52-.34-.84v-1.68c-.42.61-.98,1.17-1.68,1.68-.7.51-1.53.92-2.47,1.22-.94.3-2.04.46-3.29.46Zm2.26-5.47c.93,0,1.77-.2,2.52-.6.75-.4,1.34-1.02,1.78-1.87.43-.85.65-1.91.65-3.19v-.67l-4.08.72c-1.5.26-2.6.65-3.29,1.18-.69.53-1.03,1.14-1.03,1.85,0,.54.16,1.01.48,1.39.32.38.74.68,1.27.89.53.21,1.1.31,1.7.31Z" fill="#fff"/>
      <path d="m254.93,50.45c-.35,0-.64-.12-.86-.36-.22-.24-.34-.52-.34-.84v-22.56c0-.32.11-.6.34-.84.22-.24.51-.36.86-.36h5.52c.35,0,.65.12.89.36.24.24.36.52.36.84v1.92c.83-.99,1.85-1.76,3.05-2.3,1.2-.54,2.55-.82,4.06-.82h2.11c.35,0,.64.11.86.34.22.22.34.51.34.86v4.94c0,.32-.11.6-.34.84-.22.24-.51.36-.86.36h-4.66c-1.31,0-2.33.36-3.05,1.08-.72.72-1.08,1.74-1.08,3.05v12.29c0,.32-.12.6-.36.84-.24.24-.54.36-.89.36h-5.95Z" fill="#fff"/>
      <path d="m286.85,50.93c-3.78,0-6.78-1.02-9.02-3.07-2.24-2.05-3.41-5.09-3.5-9.12v-1.68c.1-2.53.66-4.7,1.7-6.5,1.04-1.81,2.48-3.18,4.32-4.13,1.84-.94,3.99-1.42,6.46-1.42,2.82,0,5.14.56,6.98,1.68,1.84,1.12,3.22,2.64,4.15,4.56.93,1.92,1.39,4.11,1.39,6.58v1.15c0,.35-.11.64-.34.86-.22.22-.51.34-.86.34h-15.36v.34c.03.93.2,1.78.5,2.54.3.77.75,1.38,1.34,1.82.59.45,1.32.67,2.18.67.64,0,1.18-.1,1.61-.31.43-.21.79-.45,1.08-.72.29-.27.51-.5.67-.7.29-.35.52-.57.7-.65.17-.08.46-.12.84-.12h5.95c.32,0,.58.1.79.29.21.19.29.45.26.77-.03.54-.3,1.2-.82,1.97s-1.26,1.53-2.23,2.28c-.98.75-2.2,1.37-3.67,1.85-1.47.48-3.18.72-5.14.72Zm-4.08-15.5h8.11v-.1c0-1.06-.15-1.96-.46-2.71-.3-.75-.77-1.34-1.39-1.75-.62-.42-1.37-.62-2.23-.62s-1.55.21-2.16.62c-.61.42-1.07,1-1.39,1.75-.32.75-.48,1.66-.48,2.71v.1Z" fill="#fff"/>
    </g>
    <g>
      <circle cx="34.01" cy="25.13" r="2.53" fill="#0087b1"/>
      <path d="m.16,61.12c2.67-2.58,5.33-5.15,8-7.73v-7.99l5.86-5.33h6.05l12.88-12.8-1.33-1.33-12.26,12.53h-6.13L0,48.18v13.07l.16-.13Z" fill="url(#Degradado_sin_nombre_692)"/>
      <path d="m11.75,32.19V12.9h18.6s16.05,1.7,16.05,17.96-12.53,21.43-18.13,21.51-13.35,0-13.35,0l-.11-1.65,4.8-4.53h5.86l10.66-10.66-1.34-1.07-10.12,9.86h-5.6l-5.86,5.6v3.2l-9.33,9.33h27.6s24.91-1.07,27.58-29.86c0,0,1.6-27.83-27.59-30.18H0v38.21l11.75-8.43Z" fill="url(#Degradado_sin_nombre_710)"/>
      <circle cx="37.05" cy="33.52" r="2.53" fill="#0087b1"/>
    </g>
    <path d="m74.9,2.41v60.03c0,3.22,5,3.22,5,0V2.41c0-3.22-5-3.22-5,0h0Z" fill="#fff"/>
  </g>
</svg>